<svg width="417" height="417" viewBox="0 0 417 417" fill="none" xmlns="http://www.w3.org/2000/svg">
<mask id="mask0_222_2" style="mask-type:alpha" maskUnits="userSpaceOnUse" x="0" y="0" width="417" height="417">
<circle cx="208.5" cy="208.5" r="208.5" fill="#C4C4C4"/>
</mask>
<g mask="url(#mask0_222_2)">
<rect x="-546" y="-333" width="1500" height="665" rx="10" fill="url(#paint0_linear_222_2)"/>
<path fill-rule="evenodd" clip-rule="evenodd" d="M-546 155.691L-518.5 143.671C-491 131.65 -434.75 107.609 -379.75 101.599C-323.5 95.5884 -268.5 107.609 -212.25 119.63C-157.25 131.65 -101 143.671 -46 155.691C9 167.712 65.25 179.732 120.25 167.712C176.5 155.691 231.5 119.63 287.75 107.609C342.75 95.5884 399 107.609 454 131.65C509 155.691 565.25 191.753 620.25 203.774C676.5 215.794 731.5 203.774 787.75 191.753C842.75 179.732 899 167.712 926.5 161.702L954 155.691V336H926.5C899 336 842.75 336 787.75 336C731.5 336 676.5 336 620.25 336C565.25 336 509 336 454 336C399 336 342.75 336 287.75 336C231.5 336 176.5 336 120.25 336C65.25 336 9 336 -46 336C-101 336 -157.25 336 -212.25 336C-268.5 336 -323.5 336 -379.75 336C-434.75 336 -491 336 -518.5 336H-546V155.691Z" fill="#0099FF"/>
<path fill-rule="evenodd" clip-rule="evenodd" d="M-546 131.691L-518.5 119.671C-491 107.65 -434.75 83.6089 -379.75 77.5987C-323.5 71.5884 -268.5 83.6089 -212.25 95.6295C-157.25 107.65 -101 119.671 -46 131.691C9 143.712 65.25 155.732 120.25 143.712C176.5 131.691 231.5 95.6295 287.75 83.6089C342.75 71.5884 399 83.6089 454 107.65C509 131.691 565.25 167.753 620.25 179.774C676.5 191.794 731.5 179.774 787.75 167.753C842.75 155.732 899 143.712 926.5 137.702L954 131.691V312H926.5C899 312 842.75 312 787.75 312C731.5 312 676.5 312 620.25 312C565.25 312 509 312 454 312C399 312 342.75 312 287.75 312C231.5 312 176.5 312 120.25 312C65.25 312 9 312 -46 312C-101 312 -157.25 312 -212.25 312C-268.5 312 -323.5 312 -379.75 312C-434.75 312 -491 312 -518.5 312H-546V131.691Z" fill="#0099FF" fill-opacity="0.09"/>
<path fill-rule="evenodd" clip-rule="evenodd" d="M-546 224.691L-518.5 212.671C-491 200.65 -434.75 176.609 -379.75 170.599C-323.5 164.588 -268.5 176.609 -212.25 188.63C-157.25 200.65 -101 212.671 -46 224.691C9 236.712 65.25 248.732 120.25 236.712C176.5 224.691 231.5 188.63 287.75 176.609C342.75 164.588 399 176.609 454 200.65C509 224.691 565.25 260.753 620.25 272.774C676.5 284.794 731.5 272.774 787.75 260.753C842.75 248.732 899 236.712 926.5 230.702L954 224.691V405H926.5C899 405 842.75 405 787.75 405C731.5 405 676.5 405 620.25 405C565.25 405 509 405 454 405C399 405 342.75 405 287.75 405C231.5 405 176.5 405 120.25 405C65.25 405 9 405 -46 405C-101 405 -157.25 405 -212.25 405C-268.5 405 -323.5 405 -379.75 405C-434.75 405 -491 405 -518.5 405H-546V224.691Z" fill="#008EED"/>
<path fill-rule="evenodd" clip-rule="evenodd" d="M-546 289.691L-518.5 277.671C-491 265.65 -434.75 241.609 -379.75 235.599C-323.5 229.588 -268.5 241.609 -212.25 253.63C-157.25 265.65 -101 277.671 -46 289.691C9 301.712 65.25 313.732 120.25 301.712C176.5 289.691 231.5 253.63 287.75 241.609C342.75 229.588 399 241.609 454 265.65C509 289.691 565.25 325.753 620.25 337.774C676.5 349.794 731.5 337.774 787.75 325.753C842.75 313.732 899 301.712 926.5 295.702L954 289.691V470H926.5C899 470 842.75 470 787.75 470C731.5 470 676.5 470 620.25 470C565.25 470 509 470 454 470C399 470 342.75 470 287.75 470C231.5 470 176.5 470 120.25 470C65.25 470 9 470 -46 470C-101 470 -157.25 470 -212.25 470C-268.5 470 -323.5 470 -379.75 470C-434.75 470 -491 470 -518.5 470H-546V289.691Z" fill="#0083DB"/>
<path fill-rule="evenodd" clip-rule="evenodd" d="M-546 349.234C-546 345.26 -543.647 341.663 -540.005 340.071L-518.5 330.671C-491 318.65 -434.75 294.609 -379.75 288.599C-323.5 282.588 -268.5 294.609 -212.25 306.63C-157.25 318.65 -101 330.671 -46 342.691C9 354.712 65.25 366.732 120.25 354.712C176.5 342.691 231.5 306.63 287.75 294.609C342.75 282.588 399 294.609 454 318.65C509 342.691 565.25 378.753 620.25 390.774C676.5 402.794 731.5 390.774 787.75 378.753C842.75 366.732 899 354.712 926.5 348.702L941.865 345.343C948.101 343.981 954 348.73 954 355.113V513C954 518.523 949.523 523 944 523H926.5C899 523 842.75 523 787.75 523C731.5 523 676.5 523 620.25 523C565.25 523 509 523 454 523C399 523 342.75 523 287.75 523C231.5 523 176.5 523 120.25 523C65.25 523 9 523 -46 523C-101 523 -157.25 523 -212.25 523C-268.5 523 -323.5 523 -379.75 523C-434.75 523 -491 523 -518.5 523H-536C-541.523 523 -546 518.523 -546 513V349.234Z" fill="#007ACB"/>
<path d="M314.182 206.422C305.471 190.584 292.306 177.227 276.111 167.795C259.456 158.095 240.23 152.967 220.511 152.967C193.893 152.967 168.849 162.106 149.394 178.81C140.437 166.828 126.338 158.834 110.704 157.094L106.91 156.672L105.943 160.127C104.751 164.382 104.147 168.783 104.147 173.209C104.147 186.238 109.473 198.801 118.894 208.295C109.473 217.79 104.147 230.352 104.147 243.382C104.147 247.808 104.751 252.209 105.942 256.464L106.909 259.918L110.704 259.496C126.338 257.757 140.437 249.762 149.394 237.78C168.849 254.485 193.893 263.623 220.511 263.623C240.23 263.623 259.456 258.496 276.111 248.795C292.305 239.363 305.47 226.006 314.182 210.169L315.213 208.295L314.182 206.422Z" fill="#FF9900"/>
<path d="M319.862 206.384C310.66 188.493 296.754 173.405 279.647 162.75C262.054 151.792 241.745 146 220.916 146C192.799 146 166.345 156.323 145.795 175.193C136.333 161.658 121.44 152.627 104.926 150.662L100.918 150.185L99.8962 154.087C98.6379 158.894 98 163.866 98 168.866C98 183.584 103.626 197.775 113.577 208.5C103.626 219.225 98 233.416 98 248.135C98 253.135 98.6379 258.107 99.8957 262.913L100.917 266.815L104.926 266.338C121.44 264.373 136.333 255.343 145.794 241.807C166.344 260.677 192.799 271 220.916 271C241.745 271 262.054 265.208 279.647 254.25C296.753 243.595 310.659 228.507 319.862 210.616L320.951 208.5L319.862 206.384ZM220.916 261.741C193.351 261.741 167.53 250.917 148.208 231.263L143.865 226.844L140.854 232.258C133.903 244.757 121.812 253.587 107.973 256.467C107.503 253.724 107.266 250.935 107.266 248.135C107.266 234.389 113.1 221.19 123.272 211.922L127.026 208.5L123.272 205.079C113.1 195.81 107.266 182.611 107.266 168.866C107.266 166.065 107.503 163.276 107.973 160.533C121.812 163.413 133.903 172.242 140.854 184.742L143.865 190.156L148.208 185.738C167.53 166.084 193.351 155.26 220.916 155.26C258.503 155.26 292.609 175.596 310.502 208.5C292.609 241.404 258.503 261.741 220.916 261.741Z" fill="black"/>
<path d="M279.148 200.098C274.628 200.098 270.951 203.775 270.951 208.295C270.951 212.815 274.628 216.492 279.148 216.492C283.667 216.492 287.344 212.815 287.344 208.295C287.344 203.775 283.667 200.098 279.148 200.098Z" fill="black"/>
<circle cx="348.5" cy="145.5" r="15.5" transform="rotate(-180 348.5 145.5)" fill="white" fill-opacity="0.15"/>
<circle cx="346" cy="198" r="10" transform="rotate(-180 346 198)" fill="white" fill-opacity="0.26"/>
</g>
<defs>
<linearGradient id="paint0_linear_222_2" x1="204" y1="-333" x2="204" y2="332" gradientUnits="userSpaceOnUse">
<stop stop-color="#FFDB59"/>
<stop offset="1" stop-color="#FFD02B"/>
</linearGradient>
</defs>
</svg>
